<?xml version="1.0" encoding="utf-8"?>
<!-- Generator: Adobe Illustrator 19.0.0, SVG Export Plug-In . SVG Version: 6.00 Build 0)  -->
<svg version="1.1" id="Layer_1" xmlns="http://www.w3.org/2000/svg" xmlns:xlink="http://www.w3.org/1999/xlink" x="0px" y="0px"
	 viewBox="0 206.3 497.2 64" style="enable-background:new 0 206.3 497.2 64;" xml:space="preserve">
<style type="text/css">
	.st0{fill:#1B2B56;}
	.st1{fill:#EE3559;}
</style>
<g id="XMLID_2_">
	<path id="XMLID_25_" class="st0" d="M13.7,270.2H0l13.5-63.8h13.8L13.7,270.2z M52.6,270.2H39.1l2.5-11.6c0.2-0.8,0.3-1.5,0.3-2.1
		s0.1-1.1,0.1-1.6c0-1.3-0.4-2.1-1.3-2.4s-2.6-0.5-5.2-0.5H18.3l27.8-29.7h16.6l-18,18.2c4.4,0,7.6,0.5,9.5,1.5c1.8,1,2.8,3,2.8,5.8
		c0,1.8-0.3,3.9-0.9,6.2L52.6,270.2z M155.9,222.2l-27.5,48h-19.7l-2.5-27.9l-16.1,27.9H72l-7.2-48h14l4.8,38.3l22.4-38.3h10.1
		l4.1,38.3l21.7-38.3H155.9L155.9,222.2z M162,270.2h-13.6l10.1-48h13.6L162,270.2z M173.3,217.3h-13.6l2.4-11h13.6L173.3,217.3z
		 M184.4,270.2h-13.7l13.5-63.8H198L184.4,270.2z M223.4,270.2h-13.6l2.5-11.6c0.2-0.8,0.3-1.5,0.3-2.1s0.1-1.1,0.1-1.6
		c0-1.3-0.4-2.1-1.3-2.4c-0.8-0.4-2.6-0.5-5.2-0.5H189l27.8-29.7h16.6l-18.1,18.2c4.4,0,7.6,0.5,9.5,1.5s2.8,3,2.8,5.8
		c0,1.8-0.3,3.9-1,6.2L223.4,270.2z M284.9,256.7c-0.5,2.9-1.3,5.2-2.1,7c-0.8,1.8-2,3.1-3.4,4.1s-3.2,1.6-5.3,2
		c-2.1,0.4-4.7,0.5-7.8,0.5h-35.2l13.6-63.9h13.6l-11.1,52.3h16.2c1.6,0,2.8-0.1,3.8-0.1c1-0.1,1.8-0.4,2.4-0.8s1.1-1.1,1.5-2
		c0.4-0.8,0.7-2.1,1.2-3.8l2.4-11.5c0.4-1.9,0.5-3.1,0.5-3.6c0-1.3-0.4-2.1-1.3-2.4s-2.5-0.5-5.1-0.5h-11.6l2.4-11.6h16.7
		c2.5,0,4.6,0.1,6.4,0.3s3.2,0.6,4.2,1.2s1.8,1.3,2.3,2.3s0.7,2.2,0.7,3.7s-0.2,3.5-0.7,6L284.9,256.7L284.9,256.7z M458.9,256.7
		c-0.7,2.9-1.5,5.2-2.2,7c-0.8,1.8-1.9,3.1-3.3,4.1s-3.1,1.6-5.2,2s-4.7,0.5-7.9,0.5h-36.9l2.4-11.6h35.3c1.6,0,2.9-0.4,3.9-1.2
		c1-0.8,1.5-1.6,1.5-2.6c0-1.8-1.3-2.7-3.9-2.7h-20.2c-4.2,0-7.4-0.8-9.6-2.6c-2.2-1.7-3.3-4-3.3-6.9c0-0.4,0-0.7,0.1-1
		s0.1-0.7,0.2-1l0.9-4.8c0.7-2.8,1.5-5.2,2.3-7s1.9-3.2,3.3-4.2s3.1-1.6,5.2-2c2.1-0.3,4.7-0.5,7.9-0.5h36.8l-2.4,11.6h-34.4
		c-1.8,0-3.2,0.4-4.2,1.3c-1.1,0.8-1.6,1.8-1.6,2.8c0,1.9,1.5,2.8,4.3,2.8h21.3c7.1,0,10.6,3.3,10.6,9.9c0,0.6-0.1,1.2-0.1,1.8
		c-0.1,0.6-0.2,1.2-0.3,1.8L458.9,256.7L458.9,256.7z M487.1,270.2h-11c-2.5,0-4.7-0.1-6.4-0.3c-1.8-0.2-3.2-0.6-4.2-1.2
		c-1.1-0.5-1.8-1.3-2.3-2.3s-0.7-2.2-0.7-3.7c0-1.6,0.3-3.6,0.8-6l10.6-50.3h13.6l-3.5,15.9h13.2l-2.5,11.6h-13l-3.9,18.1
		c-0.4,1.9-0.5,3.1-0.5,3.7c0,1.3,0.4,2.1,1.3,2.4s2.6,0.5,5.2,0.5h5.8L487.1,270.2L487.1,270.2z"/>
	<path id="XMLID_15_" class="st1" d="M362.9,270.2c-4.2,0-8.4-2.7-10-4.4c-2.3-2.4-4.5-5.6-6.6-9c-3.8,3.7-7.6,7.1-10.9,9.6
		c-1.6,1.2-6.3,3.8-10.3,3.8h-23.6c-8.9,0-12-5.5-12-10.7c0-1.4,0.2-2.8,0.5-3.9l4.5-21.2c1.6-7.9,6.5-12,14.4-12h23.6
		c4.3,0,8.5,2.7,10.1,4.4c2.3,2.4,4.5,5.6,6.5,8.9c3.8-3.6,7.5-7.1,11-9.6c1.6-1.2,6.2-3.7,10.2-3.7h23.6c3.5,0,6.2,0.8,8.3,2.4
		c1.8,1.3,3.8,3.9,3.8,8.3c0,1.4-0.2,2.8-0.5,3.9l-4.5,21.2c-1.8,8-6.6,12-14.5,12L362.9,270.2L362.9,270.2z M389.5,235.4h-16.3
		c-1.5,0-3.4,0.2-4.1,0.5l-1.2,0.6c-3,2.2-6.4,5.4-9.9,8.8c-1.1,1.1-1.3,3-0.5,4.3c1.1,1.7,2.1,3.3,3.2,4.7c0.9,1.2,1.9,2.3,2.2,2.4
		c0.2,0.1,1.7,0.2,3.2,0.2l18.9-0.1c1.5,0,3-1.2,3.4-2.7l3.5-16.1C392,236.6,391.1,235.4,389.5,235.4L389.5,235.4z M307.1,238.2
		l-3.5,16c-0.3,1.5,0.7,2.7,2.2,2.7h16.3c1.5,0,3.4-0.2,4.1-0.5l1.2-0.6c2.9-2.2,6.4-5.4,9.9-8.9c1.1-1.1,1.3-3,0.5-4.3
		c-1-1.7-2.1-3.3-3.2-4.7c-0.9-1.2-1.9-2.3-2.2-2.4c-0.2-0.1-1.7-0.2-3.3-0.2l-18.9,0.1C308.9,235.5,307.4,236.8,307.1,238.2
		L307.1,238.2z"/>
	<path id="XMLID_3_" class="st0" d="M492.9,206.4c-2.1,0-3.8,1.7-3.8,3.8s1.7,3.8,3.8,3.8c2.1,0,3.8-1.7,3.8-3.8
		S495,206.4,492.9,206.4z M492.9,213.4c-1.8,0-3.2-1.4-3.2-3.2s1.5-3.2,3.2-3.2c1.8,0,3.2,1.4,3.2,3.2S494.7,213.4,492.9,213.4z
		 M493.9,210.7c-0.1-0.1-0.2-0.2-0.4-0.3c0.4-0.1,0.6-0.2,0.8-0.4s0.2-0.4,0.2-0.7c0-0.2-0.1-0.4-0.2-0.6c-0.1-0.2-0.2-0.3-0.5-0.4
		c-0.1-0.2-0.4-0.2-0.8-0.2h-1.7v3.9h0.8v-1.6h0.2c0.2,0,0.3,0,0.4,0.1c0.1,0,0.2,0.1,0.2,0.2c0.1,0.1,0.2,0.3,0.4,0.6l0.6,0.8h1
		l-0.5-0.8C494.2,211,494.1,210.8,493.9,210.7z M492.7,209.8h-0.6v-1h1.2c0.1,0,0.2,0.1,0.3,0.2c0.1,0.1,0.1,0.2,0.1,0.3
		s0,0.2-0.1,0.3s-0.1,0.1-0.2,0.2H492.7z"/>
</g>
</svg>
